<?xml version="1.0" ?><svg data-name="Layer 1" id="Layer_1" viewBox="0 0 272 272" xmlns="http://www.w3.org/2000/svg"><defs><style>.cls-1{fill:#564c4d;}.cls-2{fill:#4cb050;}</style></defs><title/><path class="cls-1" d="M100.36,163c-4.8-8.24-19-29.47-39.82-33.63C34.54,124.15,8,147.46,8,147.46s15.61,31.72,41.61,36.91c17.71,3.53,35.68-6.17,45.33-12.7a80.42,80.42,0,0,0,7.21-5.43S101.54,165,100.36,163Zm-43,14.16a31.75,31.75,0,0,1-6.24-.6c-14.73-2.94-26.72-17.42-32.77-27,7.09-5,20.61-13,34.35-13a31.72,31.72,0,0,1,6.23.6c10.9,2.17,19.88,10.29,26.15,17.88a107.92,107.92,0,0,0-43.5-8.53q0,3.51-.08,7a99.78,99.78,0,0,1,46,13.38C80,171.64,68.78,177.12,57.41,177.12Z"/><path class="cls-2" d="M91.72,164.16c-1.21.85-2.61,1.79-4.17,2.76a99.78,99.78,0,0,0-46-13.38q0-3.5.08-7a107.92,107.92,0,0,1,43.5,8.53A90.39,90.39,0,0,1,91.72,164.16Z"/><path class="cls-1" d="M264,40.27s-42.76-4.14-68.76,19.84C174.34,79.39,170.62,111,170,122.62c-.16,2.86-.14,4.52-.14,4.52s3.11.3,8.16.26c13.69-.07,41.61-2.58,60.6-20.1C264.59,83.31,264,40.27,264,40.27Zm-30.84,61.15c-15.19,14-37.6,17.23-50.5,17.85A223.73,223.73,0,0,1,210,82.9L205,78a230.65,230.65,0,0,0-25,29.4c2.56-13.08,8.22-29.94,20.69-41.44,17.12-15.78,43.42-17.88,54.93-18C254.42,60.6,250,85.89,233.16,101.42Z"/><path class="cls-2" d="M210,82.9a223.73,223.73,0,0,0-27.33,36.37c-1.64.08-3.12.12-4.42.13a116.33,116.33,0,0,1,1.73-12A230.65,230.65,0,0,1,205,78Z"/><path class="cls-1" d="M210,82.9a223.73,223.73,0,0,0-27.33,36.37c-1.62,2.68-3.17,5.39-4.68,8.13A223,223,0,0,0,150.62,232H136.55q.2-3.82.51-7.62.82-9.83,2.45-19.5a233.3,233.3,0,0,1,14.14-49.73h0A233.63,233.63,0,0,1,170,122.62q4.7-7.77,10-15.19A230.65,230.65,0,0,1,205,78Z"/><path class="cls-1" d="M149.66,232h-15A98.48,98.48,0,0,0,104,178.89h0a97.39,97.39,0,0,0-9-7.22q-3.57-2.54-7.39-4.75a99.78,99.78,0,0,0-46-13.38q0-3.5.08-7a107.92,107.92,0,0,1,43.5,8.53,110.9,110.9,0,0,1,15.23,7.9l1.41.9A110.73,110.73,0,0,1,149.66,232Z"/></svg>