<?xml version="1.0" ?><svg enable-background="new 0 0 100 100" id="Layer_1" version="1.1" viewBox="0 0 100 100" xml:space="preserve" xmlns="http://www.w3.org/2000/svg" xmlns:xlink="http://www.w3.org/1999/xlink"><path d="M94.972,49H82.931l7.653-7.653c0.391-0.391,0.391-1.023,0-1.414s-1.023-0.391-1.414,0L80.103,49h-7.172l7.653-7.653  c0.391-0.391,0.391-1.023,0-1.414s-1.023-0.391-1.414,0L70.103,49h-17.69l12.509-12.509h12.823c0.552,0,1-0.447,1-1s-0.448-1-1-1  H66.922l5.07-5.07h12.824c0.552,0,1-0.447,1-1s-0.448-1-1-1H73.992l8.534-8.534c0.391-0.391,0.391-1.023,0-1.414  s-1.023-0.391-1.414,0l-8.534,8.534V15.184c0-0.553-0.448-1-1-1s-1,0.447-1,1v12.823l-5.071,5.071V22.255c0-0.553-0.448-1-1-1  s-1,0.447-1,1v12.822L51,47.586V29.897l9.067-9.067c0.391-0.391,0.391-1.023,0-1.414s-1.023-0.391-1.414,0L51,27.069v-7.172  l9.067-9.067c0.391-0.391,0.391-1.023,0-1.414s-1.023-0.391-1.414,0L51,17.069V5.028c0-0.553-0.448-1-1-1s-1,0.447-1,1v12.041  l-7.653-7.653c-0.391-0.391-1.023-0.391-1.414,0s-0.391,1.023,0,1.414L49,19.897v7.172l-7.653-7.653  c-0.391-0.391-1.023-0.391-1.414,0s-0.391,1.023,0,1.414L49,29.897v17.689L36.492,35.078V22.255c0-0.553-0.448-1-1-1s-1,0.447-1,1  v10.823l-5.071-5.071V15.184c0-0.553-0.448-1-1-1s-1,0.447-1,1v10.823l-8.534-8.534c-0.391-0.391-1.023-0.391-1.414,0  s-0.391,1.023,0,1.414l8.534,8.534H15.184c-0.552,0-1,0.447-1,1s0.448,1,1,1h12.823l5.07,5.07H22.255c-0.552,0-1,0.447-1,1  s0.448,1,1,1h12.823L47.586,49h-17.69l-9.067-9.067c-0.391-0.391-1.023-0.391-1.414,0s-0.391,1.023,0,1.414L27.068,49h-7.172  l-9.067-9.067c-0.391-0.391-1.023-0.391-1.414,0s-0.391,1.023,0,1.414L17.068,49H5.028c-0.552,0-1,0.447-1,1s0.448,1,1,1h12.04  l-7.653,7.652c-0.391,0.391-0.391,1.023,0,1.414c0.195,0.195,0.451,0.293,0.707,0.293s0.512-0.098,0.707-0.293L19.896,51h7.172  l-7.653,7.652c-0.391,0.391-0.391,1.023,0,1.414c0.195,0.195,0.451,0.293,0.707,0.293s0.512-0.098,0.707-0.293L29.896,51h17.689  L35.077,63.508H22.255c-0.552,0-1,0.447-1,1s0.448,1,1,1h10.823l-5.071,5.071H15.184c-0.552,0-1,0.447-1,1s0.448,1,1,1h10.822  l-8.533,8.533c-0.391,0.391-0.391,1.023,0,1.414c0.195,0.195,0.451,0.293,0.707,0.293s0.512-0.098,0.707-0.293l8.534-8.534v10.823  c0,0.553,0.448,1,1,1s1-0.447,1-1V71.993l5.071-5.071v10.824c0,0.553,0.448,1,1,1s1-0.447,1-1V64.922L49,52.414v17.69l-9.067,9.066  c-0.391,0.391-0.391,1.023,0,1.414s1.023,0.391,1.414,0L49,72.932v7.172l-9.067,9.066c-0.391,0.391-0.391,1.023,0,1.414  s1.023,0.391,1.414,0L49,82.932v12.04c0,0.553,0.448,1,1,1s1-0.447,1-1v-12.04l7.653,7.652c0.195,0.195,0.451,0.293,0.707,0.293  s0.512-0.098,0.707-0.293c0.391-0.391,0.391-1.023,0-1.414L51,80.104v-7.172l7.653,7.652c0.195,0.195,0.451,0.293,0.707,0.293  s0.512-0.098,0.707-0.293c0.391-0.391,0.391-1.023,0-1.414L51,70.104v-17.69l12.508,12.508v12.823c0,0.553,0.448,1,1,1s1-0.447,1-1  V66.922l5.071,5.071v12.823c0,0.553,0.448,1,1,1s1-0.447,1-1V73.993l8.534,8.534c0.195,0.195,0.451,0.293,0.707,0.293  s0.512-0.098,0.707-0.293c0.391-0.391,0.391-1.023,0-1.414l-8.533-8.533h10.823c0.552,0,1-0.447,1-1s-0.448-1-1-1H71.993  l-5.071-5.071h10.823c0.552,0,1-0.447,1-1s-0.448-1-1-1H64.922L52.414,51h17.689l9.067,9.066c0.195,0.195,0.451,0.293,0.707,0.293  s0.512-0.098,0.707-0.293c0.391-0.391,0.391-1.023,0-1.414L72.931,51h7.172l9.067,9.066c0.195,0.195,0.451,0.293,0.707,0.293  s0.512-0.098,0.707-0.293c0.391-0.391,0.391-1.023,0-1.414L82.931,51h12.04c0.552,0,1-0.447,1-1S95.524,49,94.972,49z"/></svg>